<?xml version="1.0" encoding="utf-8"?>
<!-- Generator: Adobe Illustrator 21.1.0, SVG Export Plug-In . SVG Version: 6.00 Build 0)  -->
<svg version="1.1" id="Calque_1" xmlns="http://www.w3.org/2000/svg" xmlns:xlink="http://www.w3.org/1999/xlink" x="0px" y="0px"
	 viewBox="0 0 432 432" style="enable-background:new 0 0 432 432;" xml:space="preserve">
<style type="text/css">
	.st122{
		fill:#634E42;
		font-size: 300px;
	}
</style>
<g>
	
	<path class="st122" d="M364.2,303.4c-24.6-1.5-23.8-0.4-6-27.1c5.5-8.3-8.6-1.6-17.8,2.5c-22.6,10-29.5,2.7-31.4,26.7
		c-41.7,17.8-136.5,17.8-185.6,2.5c0-8.3,7.2-13.3-47.7-24.6c-9.8-2,8.8,19,11.5,26.6c-11.9,2.4-34.5-0.7-18.1,13
		c16.9,14.2,17.7,13.5,34.7,19.6c0,5.5-0.9,8.8,4.6,9.9c19.5,3.8,30.2,11,68,13.4c44.3,2.8,116.2,3,152.9-22.2
		c4.4-3,1.4-6.4,3.3-7.7c17.9-11.8,31.9-25.2,34.2-29.2C367.7,305,366.5,303.6,364.2,303.4z M104.5,330.3c-0.1,1.5-0.3,7.5-0.5,9.1
		c-22.7-6.7-35.8-20.2-37.4-23.7c27.1-6.9,32.9,7.3,10.1-28.8c0.5-0.1,33.5,8.4,39.3,11.1C101.8,304,105.7,298.1,104.5,330.3z
		 M301.4,353.4c-37.4,12.3-114,19-194.6-4.4c0.5-13.9,1.1-27.6,1.6-41.4c6.7,0.4,55.1,21.3,149.1,12.8c23-2.1,50.3-8.7,70.7-21.1
		C331.1,345.1,332.7,343.1,301.4,353.4z M332.1,332.7c-5.2-41,9.3-38.3-16.3-40.7c0-0.1-0.1-0.2-0.1-0.3
		c1.3-0.9,38.7-15.1,38.8-15.2c-15.9,24.8-20.3,28.2,8.6,29.9c0,0.1,0.1,0.2,0.1,0.3C353.9,316.7,343.5,325.1,332.1,332.7z"/>
	
</g>
</svg>
